<svg width="46" height="40" viewBox="0 0 46 40" fill="none" xmlns="http://www.w3.org/2000/svg">
<path d="M41.4167 4.60406C40.3527 3.53949 39.0893 2.69499 37.6987 2.11882C36.3082 1.54265 34.8178 1.24609 33.3126 1.24609C31.8074 1.24609 30.317 1.54265 28.9264 2.11882C27.5359 2.69499 26.2725 3.53949 25.2084 4.60406L23.0001 6.8124L20.7918 4.60406C18.6424 2.45471 15.7272 1.24721 12.6876 1.24721C9.64793 1.24721 6.73278 2.45471 4.58342 4.60406C2.43406 6.75342 1.22656 9.66858 1.22656 12.7082C1.22656 15.7479 2.43406 18.663 4.58342 20.8124L6.79175 23.0207L23.0001 39.2291L39.2084 23.0207L41.4167 20.8124C42.4813 19.7483 43.3258 18.4849 43.902 17.0944C44.4782 15.7038 44.7747 14.2134 44.7747 12.7082C44.7747 11.203 44.4782 9.71261 43.902 8.32207C43.3258 6.93153 42.4813 5.66814 41.4167 4.60406V4.60406Z" stroke="#D5A965" stroke-width="1.5" stroke-linecap="round" stroke-linejoin="round"/>
</svg>
