<svg width="149" height="20" viewBox="0 0 149 20" fill="none" xmlns="http://www.w3.org/2000/svg">
<path fill-rule="evenodd" clip-rule="evenodd" d="M11.5219 7.10216L9.7072 9.2355C8.77317 8.3555 7.70571 8.06216 6.45144 8.06216C4.90362 8.06216 4.04964 8.54216 4.04964 9.36883C4.04964 10.2222 4.82356 10.7022 6.50481 10.8088C8.98666 10.9688 12.1357 11.5288 12.1357 15.0222C12.1357 17.3422 10.2409 19.3422 6.47812 19.3422C4.39657 19.3422 2.31502 18.9955 0.393585 16.9955L1.99478 14.6755C2.92881 15.7155 5.06373 16.4888 6.5315 16.5155C7.75908 16.5422 8.9066 15.9022 8.9066 14.9422C8.9066 14.0355 8.15938 13.6622 6.29132 13.5555C3.80947 13.3688 0.847257 12.4622 0.847257 9.4755C0.847257 6.4355 3.99627 5.36883 6.39806 5.36883C8.45293 5.36883 10.0008 5.76883 11.5219 7.10216ZM20.5197 5.4755C24.7095 5.4755 27.4048 8.56883 27.4048 12.3288C27.4048 16.1155 24.8162 19.1822 20.5464 19.1822C16.2765 19.1822 13.7146 16.1155 13.7146 12.3288C13.7146 8.56883 16.3299 5.4755 20.5197 5.4755ZM20.5464 8.4355C18.198 8.4355 16.9704 10.3555 16.9704 12.3288C16.9704 14.3288 18.1713 16.1955 20.5464 16.1955C22.9215 16.1955 24.1224 14.3288 24.1224 12.3288C24.1224 10.3555 22.7347 8.4355 20.5464 8.4355ZM29.8378 5.74216H33.0935V12.6222C33.0935 14.6222 34.1877 16.1422 36.2692 16.1422C38.2707 16.1422 39.6317 14.4622 39.6317 12.4622V5.74216H42.8608V18.9155H39.952L39.7385 17.1288C38.3775 18.4622 37.1232 19.1022 35.2818 19.1022C32.1328 19.1022 29.8378 16.7288 29.8378 12.6488V5.74216ZM47.1885 2.38216L50.4442 2.0355V5.76883H54.0736V8.56883H50.4176V14.2488C50.4176 15.5022 51.1114 16.1155 52.1255 16.1155C52.6325 16.1155 53.2196 15.9555 53.7 15.7155L54.6073 18.4888C53.7528 18.8453 52.8379 19.0354 51.912 19.0488C49.0565 19.1555 47.1885 17.5288 47.1885 14.2488V8.56883H44.7333V5.76883H47.1885V2.38216ZM56.6133 0.222165H59.8691V7.52883C61.0433 6.00883 62.4843 5.5555 63.9788 5.5555C67.7149 5.5555 69.3695 8.08883 69.3695 11.9555V18.8888H66.1137V11.9822C66.1137 9.58216 64.8594 8.56883 63.1248 8.56883C61.2034 8.56883 59.8691 10.1955 59.8691 12.1688V18.8888H56.6133V0.222165ZM84.2383 18.8888H80.9826V11.8488C80.9826 10.1155 80.0752 8.54216 78.2872 8.54216C76.5259 8.54216 75.4851 10.1155 75.4851 11.8488V18.8888H72.2294V5.7155H75.245L75.4851 7.3155C76.179 5.98216 77.7001 5.50216 78.9544 5.50216C80.5289 5.50216 82.1034 6.14216 82.8506 7.9555C84.0248 6.08883 85.546 5.5555 87.2539 5.5555C90.99 5.5555 92.8314 7.84883 92.8314 11.7955V18.8888H89.5757V11.7955C89.5757 10.0622 88.8551 8.5955 87.0938 8.5955C85.3325 8.5955 84.2383 10.1155 84.2383 11.8488V18.8888ZM109.301 13.4755H99.0271C99.2406 15.1022 100.655 16.2755 102.95 16.2755C104.151 16.2755 105.725 15.8222 106.473 15.0488L108.554 17.1022C107.167 18.5422 104.898 19.2355 102.897 19.2355C98.36 19.2355 95.6646 16.4355 95.6646 12.2222C95.6646 8.22216 98.3867 5.34216 102.657 5.34216C107.06 5.34216 109.809 8.06216 109.301 13.4755ZM99.0805 10.7822H106.179C105.966 9.0755 104.631 8.22216 102.763 8.22216C101.002 8.22216 99.5609 9.0755 99.0805 10.7822ZM118.299 8.46216C116.218 8.46216 114.563 9.92883 114.563 12.3022C114.563 14.5955 116.218 16.1688 118.299 16.1688C120.354 16.1688 122.115 14.6755 122.115 12.3022C122.115 10.0088 120.354 8.46216 118.299 8.46216ZM122.329 0.248831H125.585V18.8888H122.542L122.329 17.0755C121.315 18.6488 119.687 19.1822 118.086 19.1822C114.216 19.1822 111.307 16.6222 111.307 12.3022C111.307 7.76883 114.163 5.42216 118.006 5.42216C119.393 5.42216 121.555 6.16883 122.329 7.52883V0.248831ZM131.78 5.68883V18.8888H128.525V5.68883H131.78ZM128.231 2.0355C128.231 -0.497835 132.074 -0.497835 132.074 2.0355C132.074 4.56883 128.231 4.56883 128.231 2.0355ZM145.155 7.5555L145.262 5.74216H148.384V18.8888H145.315L145.155 16.9688C144.408 18.5155 142.353 19.2622 140.885 19.2888C136.989 19.3155 134.107 16.9155 134.107 12.3022C134.107 7.76883 137.122 5.3955 140.965 5.42216C142.726 5.42216 144.408 6.24883 145.155 7.5555ZM141.259 8.32883C139.097 8.32883 137.362 9.7955 137.362 12.3022C137.362 14.8088 139.097 16.3022 141.259 16.3022C146.382 16.3022 146.382 8.32883 141.259 8.32883Z" fill="white"/>
</svg>
