<svg width="19" height="19" viewBox="0 0 19 19" fill="none" xmlns="http://www.w3.org/2000/svg">
<path d="M17.4481 13.3084V15.8084C17.449 16.0405 17.4015 16.2702 17.3085 16.4829C17.2155 16.6955 17.0791 16.8864 16.9081 17.0433C16.7371 17.2002 16.5352 17.3197 16.3154 17.394C16.0955 17.4684 15.8625 17.496 15.6314 17.4751C13.0671 17.1964 10.6039 16.3202 8.43973 14.9167C6.42625 13.6373 4.71918 11.9302 3.43973 9.91675C2.03138 7.74275 1.15493 5.26758 0.881398 2.69175C0.860573 2.4613 0.88796 2.22905 0.961815 2.00977C1.03567 1.79049 1.15437 1.58899 1.31037 1.4181C1.46637 1.24721 1.65624 1.11067 1.86789 1.01718C2.07955 0.923693 2.30835 0.875299 2.53973 0.875081H5.03973C5.44415 0.8711 5.83622 1.01431 6.14287 1.27802C6.44951 1.54174 6.6498 1.90795 6.7064 2.30841C6.81192 3.10847 7.00761 3.89402 7.28973 4.65008C7.40185 4.94835 7.42612 5.27251 7.35965 5.58415C7.29319 5.89579 7.13878 6.18184 6.91473 6.40841L5.8564 7.46675C7.04269 9.55304 8.77011 11.2805 10.8564 12.4667L11.9147 11.4084C12.1413 11.1844 12.4274 11.03 12.739 10.9635C13.0506 10.897 13.3748 10.9213 13.6731 11.0334C14.4291 11.3155 15.2147 11.5112 16.0147 11.6167C16.4195 11.6739 16.7892 11.8778 17.0535 12.1897C17.3178 12.5016 17.4582 12.8997 17.4481 13.3084Z" stroke="white" stroke-width="1.5" stroke-linecap="round" stroke-linejoin="round"/>
</svg>
